# xmcd CD database file
#
# Track frame offsets:
#	150
#	18025
#	32681
#	50890
#	67039
#	82287
#	97898
#	114410
#	128061
#	141383
#	156344
#	171197
#	185813
#	201817
#	218130
#	232971
#	248063
#	262598
#	277260
#	292131
#
# Disc length: 4105 seconds
#
# Revision: 3
# Processed by: cddbd v1.5.2PL0 Copyright (c) Steve Scherf et al.
# Submitted via: Feurio! 1.68 - http://www.feurio.com
#
DISCID=2f100714
DTITLE=Rot 179 - Die deutsche Schlagerparade 2009-01 [CD1)
DYEAR=2008
DGENRE=Schlager
TTITLE0=Mireille Mathieu - Au Revoir heißt nicht Adieu
TTITLE1=Bernhard Brink - Caipirinha - Hit Mix
TTITLE2=Helene Fischer - Vergeben vergessen und wieder vertrau'n
TTITLE3=Schlagerfeuer - Russische Puppen
TTITLE4=Simone - 1000 mal geträumt (Radio Version)
TTITLE5=Fernando Express - Der rote Mond von Agadir
TTITLE6=Howard Carpendale - Du fehlst
TTITLE7=Cindy Berger - Liebe kommt, Liebe geht
TTITLE8=Markus - Alles kommt wie es kommt
TTITLE9=Veronika Fischer - Sommersatter Süden
TTITLE10=Tanzpalais - Es war nur ein Augenblick
TTITLE11=Heike Schäfer - Hasta Manana
TTITLE12=Ingrid Peters - Bei dir sein
TTITLE13=Matthias Carras - Wie du tanzt
TTITLE14=Uta Bresan - Will nur deine Stimme hören
TTITLE15=Peter Lorenz - Schatten und Licht
TTITLE16=Gaby Baginsky - Diese Nacht
TTITLE17=Maurice Dalessio - Picknick über Wolken
TTITLE18=Tops - Rosen kann dir jeder schenken
TTITLE19=Frank Zander - Spass ist für alle da (Centerfold)
EXTD=
EXTT0=
EXTT1=
EXTT2=
EXTT3=
EXTT4=
EXTT5=
EXTT6=
EXTT7=
EXTT8=
EXTT9=
EXTT10=
EXTT11=
EXTT12=
EXTT13=
EXTT14=
EXTT15=
EXTT16=
EXTT17=
EXTT18=
EXTT19=
PLAYORDER=
